<svg width="25" height="28" viewBox="0 0 25 28" fill="none" xmlns="http://www.w3.org/2000/svg">
<path d="M24.2482 13.4183L19.6968 9.0594C19.3612 8.73797 18.8182 8.73753 18.4826 9.05683C18.1461 9.37631 18.143 9.89759 18.475 10.2212L21.5119 13.1797H9.28614C8.81118 13.1797 8.42587 13.5449 8.42587 14C8.42587 14.4551 8.81121 14.8203 9.28614 14.8203H21.563L18.4799 17.7749C18.1443 18.0966 18.1443 18.6195 18.4799 18.9411C18.6479 19.102 18.8683 19.1831 19.0883 19.1831C19.3083 19.1831 19.5288 19.1029 19.6968 18.9419L24.2482 14.5832C24.4095 14.4287 24.5 14.2191 24.5 14.0007C24.5 13.7823 24.4095 13.5728 24.2482 13.4183Z" fill="#F4F6FC"/>
<path d="M17.5868 21.5346C17.1118 21.5346 16.7303 21.9034 16.7303 22.3585V26.3594H1.713V1.64062H16.7303V5.64309C16.7303 6.09817 17.1118 6.46701 17.5868 6.46701C18.0617 6.46701 18.4432 6.09817 18.4432 5.64309V0.81796C18.4432 0.362851 18.0524 0 17.5775 0H0.859495C0.384567 0 0 0.362851 0 0.81796V27.1837C0 27.6388 0.384567 28 0.859524 28H17.5775C18.0525 28 18.4433 27.6388 18.4433 27.1837V22.3585C18.4432 21.9034 18.0617 21.5346 17.5868 21.5346Z" fill="#F4F6FC"/>
</svg>
